<svg width="24" height="24" viewBox="0 0 24 24" fill="none" xmlns="http://www.w3.org/2000/svg">
<circle cx="5.53229" cy="18.4896" r="2.5" transform="rotate(90 5.53229 18.4896)" stroke="black" stroke-width="2"/>
<circle cx="18.5107" cy="5.51108" r="2.5" transform="rotate(90 18.5107 5.51108)" stroke="black" stroke-width="2"/>
<path fill-rule="evenodd" clip-rule="evenodd" d="M17.8892 7.54685L7.98971 17.4463L6.5755 16.0321L16.475 6.13264L17.8892 7.54685Z" fill="black"/>
<path fill-rule="evenodd" clip-rule="evenodd" d="M17.3997 7.60114C17.3997 8.15342 16.952 8.60114 16.3997 8.60114L10.4428 8.60114C9.89053 8.60114 9.44281 8.15342 9.44281 7.60114V7.60114C9.44281 7.04885 9.89053 6.60114 10.4428 6.60114L16.3997 6.60114C16.952 6.60114 17.3997 7.04885 17.3997 7.60114V7.60114Z" fill="black"/>
<path fill-rule="evenodd" clip-rule="evenodd" d="M16.3997 14.6001C15.8474 14.6001 15.3997 14.1524 15.3997 13.6001L15.3997 7.60114C15.3997 7.04885 15.8474 6.60114 16.3997 6.60114V6.60114C16.952 6.60114 17.3997 7.04885 17.3997 7.60114L17.3997 13.6001C17.3997 14.1524 16.952 14.6001 16.3997 14.6001V14.6001Z" fill="black"/>
</svg>
