<svg width="24" height="24" viewBox="0 0 24 24" fill="none" xmlns="http://www.w3.org/2000/svg">
<path d="M9.36336 14.0092L17.3505 2.92759C17.625 2.54676 18.1562 2.46055 18.537 2.73504L21.2953 4.72305C21.6761 4.99753 21.7623 5.52878 21.4878 5.90961L13.5007 16.9912C13.3689 17.1741 13.1698 17.2971 12.9473 17.3332L10.5742 17.7183C10.1108 17.7935 9.67417 17.4788 9.59898 17.0154L9.21389 14.6423C9.17778 14.4198 9.23154 14.192 9.36336 14.0092Z" stroke="black" stroke-width="1.7"/>
<rect x="15.51" y="5.79214" width="1.7" height="4.73458" transform="rotate(-54.2175 15.51 5.79214)" fill="black"/>
<path d="M2.18502 12.4242C4.43447 12.4242 5.09073 13.4963 4.80935 14.7025C4.52797 15.9086 2.77362 16.8886 2.50342 18.4538C2.20714 20.1701 3.80826 21.0768 5.2251 21.0799C6.64193 21.083 8.00644 20.2242 8.65464 19.6152" stroke="black" stroke-width="1.7" stroke-linecap="round"/>
</svg>
