<svg width="24" height="24" viewBox="0 0 24 24" fill="none" xmlns="http://www.w3.org/2000/svg">
<circle cx="12" cy="12" r="3" transform="rotate(90 12 12)" stroke="black" stroke-width="2"/>
<path fill-rule="evenodd" clip-rule="evenodd" d="M12 15C12.5523 15 13 15.4477 13 16L13 21C13 21.5523 12.5523 22 12 22V22C11.4477 22 11 21.5523 11 21L11 16C11 15.4477 11.4477 15 12 15V15Z" fill="black"/>
<path fill-rule="evenodd" clip-rule="evenodd" d="M9 12C9 12.5523 8.55228 13 8 13L3 13C2.44772 13 2 12.5523 2 12V12C2 11.4477 2.44772 11 3 11L8 11C8.55228 11 9 11.4477 9 12V12Z" fill="black"/>
<path fill-rule="evenodd" clip-rule="evenodd" d="M12 2C12.5523 2 13 2.44772 13 3L13 8C13 8.55228 12.5523 9 12 9V9C11.4477 9 11 8.55228 11 8L11 3C11 2.44772 11.4477 2 12 2V2Z" fill="black"/>
<path fill-rule="evenodd" clip-rule="evenodd" d="M22 12C22 12.5523 21.5523 13 21 13L16 13C15.4477 13 15 12.5523 15 12V12C15 11.4477 15.4477 11 16 11L21 11C21.5523 11 22 11.4477 22 12V12Z" fill="black"/>
</svg>
