<svg width="24" height="24" viewBox="0 0 24 24" fill="none" xmlns="http://www.w3.org/2000/svg">
<path fill-rule="evenodd" clip-rule="evenodd" d="M8.06645 14.5193L14.4874 8.09839L15.9016 9.5126L9.48067 15.9335L8.06645 14.5193Z" fill="black"/>
<path fill-rule="evenodd" clip-rule="evenodd" d="M2.68761 21.3124C2.29708 20.9218 2.29708 20.2887 2.68761 19.8981L4.50649 18.0793C4.89701 17.6887 5.53018 17.6887 5.9207 18.0793V18.0793C6.31123 18.4698 6.31122 19.103 5.9207 19.4935L4.10182 21.3124C3.7113 21.7029 3.07813 21.7029 2.68761 21.3124V21.3124Z" fill="black"/>
<path fill-rule="evenodd" clip-rule="evenodd" d="M17.983 6.017C17.5924 5.62647 17.5924 4.99331 17.983 4.60279L19.8662 2.71953C20.2568 2.329 20.8899 2.329 21.2804 2.71953V2.71953C21.671 3.11005 21.671 3.74322 21.2804 4.13374L19.3972 6.017C19.0067 6.40752 18.3735 6.40752 17.983 6.017V6.017Z" fill="black"/>
<circle cx="16.5" cy="7.5" r="2.5" stroke="black" stroke-width="2"/>
<circle cx="7.5" cy="16.5" r="2.5" stroke="black" stroke-width="2"/>
</svg>
