<svg width="24" height="24" viewBox="0 0 24 24" fill="none" xmlns="http://www.w3.org/2000/svg">
<rect x="6" y="18.75" width="15" height="1.5" rx="0.75" fill="black"/>
<rect x="5.25" y="3" width="15" height="1.5" rx="0.75" transform="rotate(90 5.25 3)" fill="black"/>
<rect x="13.4275" y="10" width="9.67749" height="1.5" rx="0.75" transform="rotate(-180 13.4275 10)" fill="black"/>
<rect x="14" y="20.25" width="9.5957" height="1.5" rx="0.75" transform="rotate(-90 14 20.25)" fill="black"/>
<rect x="11.8091" y="3.69159" width="15.18" height="1.5" rx="0.75" transform="rotate(112.5 11.8091 3.69159)" fill="black"/>
<rect x="21.023" y="13.5773" width="15.1784" height="1.5" rx="0.75" transform="rotate(157.5 21.023 13.5773)" fill="black"/>
<rect x="15.0923" y="7.84705" width="7.15572" height="1.5" rx="0.75" transform="rotate(-45 15.0923 7.84705)" fill="black"/>
<rect x="5.25" y="17.6893" width="10.4161" height="1.5" rx="0.75" transform="rotate(-45 5.25 17.6893)" fill="black"/>
<circle cx="4.5" cy="19.5" r="1.75" stroke="black" stroke-width="1.5"/>
<circle cx="14.5" cy="9.5" r="1.75" stroke="black" stroke-width="1.5"/>
</svg>
