<svg width="24" height="24" viewBox="0 0 24 24" fill="none" xmlns="http://www.w3.org/2000/svg">
<circle cx="18.5" cy="5.5" r="2.5" transform="rotate(90 18.5 5.5)" stroke="black" stroke-width="2"/>
<circle cx="5.5" cy="18.5" r="2.5" transform="rotate(90 5.5 18.5)" stroke="black" stroke-width="2"/>
<path fill-rule="evenodd" clip-rule="evenodd" d="M16 5.5C16 6.05228 15.5523 6.5 15 6.5H9C8.44772 6.5 8 6.05228 8 5.5V5.5C8 4.94772 8.44772 4.5 9 4.5H15C15.5523 4.5 16 4.94772 16 5.5V5.5Z" fill="black"/>
<path fill-rule="evenodd" clip-rule="evenodd" d="M16 18.5C16 19.0523 15.5523 19.5 15 19.5H9C8.44772 19.5 8 19.0523 8 18.5V18.5C8 17.9477 8.44772 17.5 9 17.5H15C15.5523 17.5 16 17.9477 16 18.5V18.5Z" fill="black"/>
<path fill-rule="evenodd" clip-rule="evenodd" d="M16 14.1667C16 14.719 15.5523 15.1667 15 15.1667H9C8.44772 15.1667 8 14.719 8 14.1667V14.1667C8 13.6144 8.44772 13.1667 9 13.1667H15C15.5523 13.1667 16 13.6144 16 14.1667V14.1667Z" fill="black"/>
<path fill-rule="evenodd" clip-rule="evenodd" d="M16 9.83334C16 10.3856 15.5523 10.8333 15 10.8333H9C8.44772 10.8333 8 10.3856 8 9.83334V9.83334C8 9.28106 8.44772 8.83334 9 8.83334H15C15.5523 8.83334 16 9.28106 16 9.83334V9.83334Z" fill="black"/>
</svg>
