<svg width="24" height="24" viewBox="0 0 24 24" fill="none" xmlns="http://www.w3.org/2000/svg">
<circle cx="12" cy="12" r="3" stroke="black" stroke-width="2"/>
<path fill-rule="evenodd" clip-rule="evenodd" d="M15 12C15 11.4477 15.4477 11 16 11L21 11C21.5523 11 22 11.4477 22 12V12C22 12.5523 21.5523 13 21 13L16 13C15.4477 13 15 12.5523 15 12V12Z" fill="black"/>
<path fill-rule="evenodd" clip-rule="evenodd" d="M2 12C2 11.4477 2.44772 11 3 11L8 11C8.55228 11 9 11.4477 9 12V12C9 12.5523 8.55228 13 8 13L3 13C2.44772 13 2 12.5523 2 12V12Z" fill="black"/>
</svg>
