<svg width="24" height="24" viewBox="0 0 24 24" fill="none" xmlns="http://www.w3.org/2000/svg">
<mask id="path-1-inside-1_1_189" fill="white">
<path fill-rule="evenodd" clip-rule="evenodd" d="M12 3C7.58172 3 4 6.58172 4 11V16H10V11C10 9.89543 10.8954 9 12 9C13.1046 9 14 9.89543 14 11V16H20V11C20 6.58172 16.4183 3 12 3Z"/>
</mask>
<path d="M4 16H2V18H4V16ZM10 16V18H12V16H10ZM14 16H12V18H14V16ZM20 16V18H22V16H20ZM6 11C6 7.68629 8.68629 5 12 5V1C6.47715 1 2 5.47715 2 11H6ZM6 16V11H2V16H6ZM10 14H4V18H10V14ZM12 16V11H8V16H12ZM12 11V7C9.79086 7 8 8.79086 8 11H12ZM12 11H16C16 8.79086 14.2091 7 12 7V11ZM12 11V16H16V11H12ZM20 14H14V18H20V14ZM18 11V16H22V11H18ZM12 5C15.3137 5 18 7.68629 18 11H22C22 5.47715 17.5228 1 12 1V5Z" fill="black" mask="url(#path-1-inside-1_1_189)"/>
<path d="M5 15H9V18C9 18.5523 8.55228 19 8 19H6C5.44772 19 5 18.5523 5 18V15Z" stroke="black" stroke-width="2"/>
<path d="M15 15H19V18C19 18.5523 18.5523 19 18 19H16C15.4477 19 15 18.5523 15 18V15Z" stroke="black" stroke-width="2"/>
</svg>
