<svg width="24" height="24" viewBox="0 0 24 24" fill="none" xmlns="http://www.w3.org/2000/svg">
<circle cx="12.7999" cy="5.09998" r="2.5" stroke="black" stroke-width="2"/>
<circle cx="14.84" cy="14.84" r="2.5" transform="rotate(-45 14.84 14.84)" stroke="black" stroke-width="2"/>
<circle cx="5.09998" cy="12.7999" r="2.5" stroke="black" stroke-width="2"/>
<path fill-rule="evenodd" clip-rule="evenodd" d="M16.4967 13.1834C16.1062 12.7929 16.1062 12.1597 16.4967 11.7692L19.6787 8.58724C20.0692 8.19671 20.7024 8.19671 21.0929 8.58724V8.58724C21.4834 8.97776 21.4834 9.61092 21.0929 10.0014L17.9109 13.1834C17.5204 13.574 16.8872 13.574 16.4967 13.1834V13.1834Z" fill="black"/>
<path fill-rule="evenodd" clip-rule="evenodd" d="M8.58714 21.0929C8.19662 20.7024 8.19662 20.0692 8.58714 19.6787L11.7691 16.4967C12.1596 16.1062 12.7928 16.1062 13.1833 16.4967V16.4967C13.5739 16.8872 13.5739 17.5204 13.1833 17.9109L10.0014 21.0929C9.61083 21.4834 8.97767 21.4834 8.58714 21.0929V21.0929Z" fill="black"/>
<path fill-rule="evenodd" clip-rule="evenodd" d="M5.53536 10.9503L10.8226 5.66303L12.2368 7.07724L6.94957 12.3645L5.53536 10.9503Z" fill="black"/>
</svg>
