<svg width="24" height="24" viewBox="0 0 24 24" fill="none" xmlns="http://www.w3.org/2000/svg">
<circle cx="5.5" cy="14.5" r="2.5" transform="rotate(90 5.5 14.5)" stroke="black" stroke-width="2"/>
<path fill-rule="evenodd" clip-rule="evenodd" d="M22 14.5C22 15.0523 21.5523 15.5 21 15.5L9 15.5C8.44771 15.5 8 15.0523 8 14.5V14.5C8 13.9477 8.44772 13.5 9 13.5L21 13.5C21.5523 13.5 22 13.9477 22 14.5V14.5Z" fill="black"/>
<path d="M9.54688 11.5977C9.05078 11.5977 8.71875 11.2773 8.71875 10.7812V7.28125H8.6875L8.08984 7.69531C7.94922 7.79297 7.85938 7.82422 7.70312 7.82422C7.39453 7.82422 7.15625 7.59375 7.15625 7.26562C7.15625 7.03516 7.25 6.84766 7.46875 6.69922L8.49219 6.01562C8.82031 5.79688 9.10547 5.76562 9.42578 5.76562C10.0234 5.76562 10.375 6.125 10.375 6.69141V10.7812C10.375 11.2773 10.043 11.5977 9.54688 11.5977ZM12.2461 11.5C11.707 11.5 11.4727 11.1992 11.4727 10.7852C11.4727 10.4805 11.6133 10.2461 11.9258 9.98438L13.4766 8.65625C14.1094 8.11328 14.2891 7.86719 14.2891 7.53125C14.2891 7.17578 14.0156 6.92969 13.6133 6.92969C13.3164 6.92969 13.1133 7.06641 12.9023 7.37109C12.6836 7.69141 12.4844 7.80859 12.168 7.80859C11.7461 7.80859 11.4883 7.5625 11.4883 7.16406C11.4883 7.03516 11.5117 6.91406 11.5625 6.79688C11.8594 6.125 12.6523 5.70703 13.6367 5.70703C15.0078 5.70703 15.8828 6.39844 15.8828 7.42188C15.8828 8.17969 15.4922 8.57422 14.6172 9.33203L13.5898 10.2188V10.25H15.3789C15.793 10.25 16.0273 10.4961 16.0273 10.875C16.0273 11.2461 15.793 11.5 15.3789 11.5H12.2461ZM18.8867 11.6562C17.5742 11.6562 16.8633 11.0312 16.6719 10.4961C16.6367 10.3984 16.6211 10.2891 16.6211 10.2031C16.6211 9.79297 16.8945 9.53906 17.3398 9.53906C17.6484 9.53906 17.8516 9.64062 18.0156 9.87891C18.2266 10.1875 18.4336 10.3711 18.9258 10.3711C19.3398 10.3711 19.6367 10.1211 19.6367 9.77344C19.6367 9.37109 19.3281 9.15625 18.7539 9.15625H18.7148C18.3281 9.15625 18.1328 8.94141 18.1328 8.60938C18.1328 8.29297 18.3281 8.06641 18.7148 8.06641H18.7539C19.2656 8.06641 19.5625 7.84375 19.5625 7.48047C19.5625 7.13281 19.3047 6.91406 18.8867 6.91406C18.5508 6.91406 18.3125 7.05078 18.1523 7.33203C17.9648 7.66406 17.7617 7.78516 17.4023 7.78516C16.9492 7.78516 16.7266 7.51953 16.7266 7.15234C16.7266 7.04297 16.7422 6.95703 16.7812 6.84766C16.9805 6.30469 17.668 5.70703 18.8789 5.70703C20.1328 5.70703 21.0859 6.23828 21.0859 7.24219C21.0859 7.97266 20.5508 8.42578 19.9297 8.55078V8.58203C20.7891 8.67188 21.3203 9.14453 21.3203 9.89453C21.3203 10.9727 20.3945 11.6562 18.8867 11.6562Z" fill="black"/>
</svg>
