<svg width="24" height="24" viewBox="0 0 24 24" fill="none" xmlns="http://www.w3.org/2000/svg">
<circle cx="16.9594" cy="5.5" r="2.5" stroke="black" stroke-width="2"/>
<mask id="path-2-inside-1_1_77" fill="white">
<path d="M12.9725 18.9134C13.48 17.6883 13.48 16.3117 12.9725 15.0866C12.465 13.8614 11.4917 12.8881 10.2665 12.3806L9.50117 14.2284C10.2363 14.5328 10.8203 15.1169 11.1248 15.8519C11.4292 16.587 11.4292 17.413 11.1248 18.1481L12.9725 18.9134Z"/>
</mask>
<path d="M12.9725 18.9134C13.48 17.6883 13.48 16.3117 12.9725 15.0866C12.465 13.8614 11.4917 12.8881 10.2665 12.3806L9.50117 14.2284C10.2363 14.5328 10.8203 15.1169 11.1248 15.8519C11.4292 16.587 11.4292 17.413 11.1248 18.1481L12.9725 18.9134Z" stroke="black" stroke-width="4" mask="url(#path-2-inside-1_1_77)"/>
<circle cx="5.46301" cy="18.4713" r="2.5" stroke="black" stroke-width="2"/>
<path fill-rule="evenodd" clip-rule="evenodd" d="M7.40002 18.5C7.40002 17.9477 7.84774 17.5 8.40002 17.5L21 17.5C21.5523 17.5 22 17.9477 22 18.5V18.5C22 19.0523 21.5523 19.5 21 19.5L8.40002 19.5C7.84774 19.5 7.40002 19.0523 7.40002 18.5V18.5Z" fill="black"/>
<path fill-rule="evenodd" clip-rule="evenodd" d="M6.01133 16.3717L14.5219 6.94504L16.0064 8.28528L7.49583 17.712L6.01133 16.3717Z" fill="black"/>
</svg>
