<svg width="24" height="24" viewBox="0 0 24 24" fill="none" xmlns="http://www.w3.org/2000/svg">
<path fill-rule="evenodd" clip-rule="evenodd" d="M16.8549 7.70308L12 4.76026L7.14508 7.70308L12 10.6459L16.8549 7.70308ZM13.3534 3.37153C12.5554 2.88782 11.4446 2.88782 10.6466 3.37153L4.64619 7.00872C4.06786 7.35928 4.06786 8.04689 4.64619 8.39744L10.6466 12.0346C11.4446 12.5183 12.5554 12.5183 13.3534 12.0346L19.3538 8.39744C19.9321 8.04689 19.9321 7.35928 19.3538 7.00872L13.3534 3.37153Z" fill="black"/>
<path d="M4.35101 11.2601L10.9605 15.2813C11.5991 15.6698 12.401 15.6698 13.0395 15.2813L19.649 11.2601" stroke="black" stroke-width="2" stroke-linecap="round"/>
<path d="M4.35101 15.4026L10.9605 19.4238C11.5991 19.8123 12.401 19.8123 13.0395 19.4238L19.649 15.4026" stroke="black" stroke-width="2" stroke-linecap="round"/>
</svg>
